<svg version="1.1" id="Layer_1" xmlns="http://www.w3.org/2000/svg" xmlns:xlink="http://www.w3.org/1999/xlink" x="0px" y="0px"
	 width="100%" viewBox="0 0 1024 1024" enable-background="new 0 0 1024 1024" xml:space="preserve">
<path fill="#000000" opacity="1.000000" stroke="none" 
	d="
M713.724731,570.054016 
	C685.765625,570.118958 658.275879,570.214600 630.786377,570.179932 
	C627.438538,570.175659 624.814209,570.961121 622.245544,573.278625 
	C612.726257,581.867188 602.958130,590.179443 593.365356,598.687927 
	C591.091797,600.704529 588.808289,602.247009 585.781128,600.771667 
	C582.989197,599.410889 582.625854,596.765137 582.645203,593.952454 
	C582.691101,587.288757 582.588318,580.623901 582.650879,573.960571 
	C582.676086,571.284729 581.775513,569.901611 578.998840,568.968811 
	C565.874695,564.559753 559.771423,555.838379 559.761230,541.933899 
	C559.736450,508.113129 559.734436,474.292328 559.761963,440.471588 
	C559.775085,424.341675 570.559143,413.682983 586.790894,413.679901 
	C629.275085,413.671844 671.765991,414.106445 714.240051,413.449036 
	C730.022522,413.204773 741.997925,425.016998 741.953796,440.872070 
	C741.884277,465.862091 741.980774,490.852570 742.003540,515.842834 
	C742.010681,523.673218 741.983032,531.503723 742.012085,539.334045 
	C742.083191,558.541016 733.256287,568.298096 713.724731,570.054016 
M641.499939,467.672211 
	C661.165283,467.673981 680.830627,467.680420 700.495972,467.674957 
	C707.362427,467.673065 710.597595,465.883209 710.589600,462.135162 
	C710.581482,458.319885 707.224121,456.368866 700.635376,456.368652 
	C667.470947,456.367645 634.306580,456.369354 601.142151,456.373016 
	C599.809143,456.373169 598.465271,456.299011 597.145264,456.438202 
	C593.822083,456.788666 591.353638,458.206238 591.297852,461.969513 
	C591.241821,465.751740 593.659119,467.222900 597.006165,467.587860 
	C598.325623,467.731750 599.669678,467.667511 601.002563,467.667999 
	C614.168335,467.672852 627.334106,467.671387 641.499939,467.672211 
M683.500000,498.879028 
	C690.323547,498.882355 697.147095,498.896027 703.970642,498.884766 
	C707.509583,498.878937 710.514648,497.738281 710.512085,493.703491 
	C710.509705,489.868500 707.897522,488.245514 704.179382,488.245148 
	C668.563965,488.241699 632.948547,488.222473 597.333130,488.229034 
	C596.347107,488.229218 595.291748,488.283478 594.388367,488.627045 
	C591.845703,489.594055 591.019409,491.672455 591.199097,494.234711 
	C591.372314,496.704681 592.666382,498.323639 595.137878,498.659851 
	C596.940796,498.905151 598.789368,498.866150 600.617554,498.867004 
	C627.911682,498.879730 655.205872,498.877991 683.500000,498.879028 
M593.057312,520.350281 
	C589.444702,526.096680 591.147644,529.642395 597.720337,529.793884 
	C603.202820,529.920349 608.690552,529.824768 614.175964,529.821716 
	C626.310364,529.814819 638.444702,529.787537 650.579102,529.808716 
	C653.154236,529.813171 655.080017,528.951050 656.145691,526.470215 
	C656.972107,524.546448 656.406555,522.895142 655.304443,521.331421 
	C653.725525,519.091187 651.323792,519.232422 648.988220,519.232605 
	C634.027954,519.233643 619.067383,519.193604 604.107544,519.277161 
	C600.650635,519.296448 597.127319,518.649841 593.057312,520.350281 
z"/>
<path fill="#000000" opacity="1.000000" stroke="none" 
	d="
M756.176270,622.647766 
	C752.651794,621.969971 750.790955,619.451233 748.578552,617.491760 
	C742.717712,612.300781 736.841614,607.118286 731.186340,601.707886 
	C728.597046,599.230713 725.902710,598.152466 722.297058,598.174194 
	C701.638123,598.298950 680.977661,598.280151 660.318298,598.192627 
	C649.878601,598.148438 641.354858,592.682129 638.011597,584.204346 
	C635.881958,578.804138 636.557129,577.732849 642.332581,577.725830 
	C666.324585,577.696655 690.316589,577.729858 714.308533,577.692505 
	C735.169128,577.660095 749.803833,563.053894 749.839355,542.161316 
	C749.876465,520.335388 749.788635,498.509308 749.770569,476.683289 
	C749.765442,470.533325 750.489807,469.857727 756.661499,470.029510 
	C769.694458,470.392365 779.210876,479.944550 779.258789,493.106598 
	C779.359985,520.930237 779.327515,548.754578 779.266785,576.578491 
	C779.245850,586.150940 774.167969,593.599609 765.045471,596.776917 
	C761.771240,597.917358 761.050110,599.626282 761.141907,602.621338 
	C761.284607,607.282288 761.230225,611.950500 761.193604,616.615173 
	C761.168945,619.764587 760.042908,622.152771 756.176270,622.647766 
z"/>
<path fill="#000000" opacity="1.000000" stroke="none" 
	d="
M392.017059,455.676605 
	C405.340820,455.679321 418.167999,455.646362 430.994812,455.701141 
	C437.964325,455.730896 441.082550,458.708527 441.133545,465.741852 
	C441.248260,481.566620 441.235443,497.393036 441.148438,513.218079 
	C441.111847,519.871216 437.636536,523.188660 430.787598,523.219910 
	C415.295532,523.290588 399.802795,523.286255 384.310608,523.232666 
	C377.152649,523.207947 373.977509,520.052612 373.935516,512.790771 
	C373.846985,497.465454 373.841583,482.139099 373.915924,466.813721 
	C373.956146,458.517212 376.892944,455.678925 385.023438,455.662872 
	C387.189026,455.658600 389.354706,455.672150 392.017059,455.676605 
z"/>
<path fill="#000000" opacity="1.000000" stroke="none" 
	d="
M397.001587,374.676453 
	C408.651764,374.677765 419.802490,374.644928 430.952820,374.693329 
	C437.936920,374.723633 441.111115,377.748260 441.148621,384.662720 
	C441.233490,400.306274 441.232513,415.950928 441.147064,431.594482 
	C441.110504,438.288574 438.128632,441.672791 431.521667,441.767761 
	C415.548798,441.997437 399.568939,441.998810 383.595367,441.804169 
	C376.894012,441.722504 374.012299,438.535736 373.956635,431.697113 
	C373.827911,415.887604 373.800903,400.076141 373.897644,384.266479 
	C373.936340,377.941254 377.241669,374.814545 383.520905,374.696808 
	C387.846558,374.615692 392.174835,374.678284 397.001587,374.676453 
z"/>
<path fill="#000000" opacity="1.000000" stroke="none" 
	d="
M279.292908,461.847015 
	C280.422882,479.498444 279.877594,496.794037 279.843964,514.080750 
	C279.832123,520.160400 276.503967,523.218262 270.384827,523.250000 
	C254.416672,523.332703 238.447403,523.316162 222.479279,523.221191 
	C216.343185,523.184692 212.898102,519.861084 212.839417,513.599487 
	C212.686661,497.299652 212.693512,480.996887 212.815842,464.696625 
	C212.859406,458.891541 216.104294,455.757996 221.894165,455.726471 
	C238.195007,455.637726 254.496719,455.724274 270.797913,455.681030 
	C275.014557,455.669800 277.647736,457.742828 279.292908,461.847015 
z"/>
<path fill="#000000" opacity="1.000000" stroke="none" 
	d="
M403.000000,604.293823 
	C396.335266,604.288147 390.169708,604.342041 384.005981,604.259521 
	C377.477478,604.172119 374.077362,601.380981 373.988159,595.068237 
	C373.755096,578.577271 373.757294,562.078918 373.977875,545.587708 
	C374.054504,539.861267 377.565643,536.800171 383.360199,536.766907 
	C399.354675,536.675049 415.350372,536.683228 431.344879,536.775085 
	C437.151672,536.808411 440.670044,539.699280 440.786774,545.535767 
	C441.123199,562.355164 441.149719,579.186462 440.927948,596.008179 
	C440.859131,601.228455 437.030518,604.201965 431.491058,604.263184 
	C422.161743,604.366150 412.830444,604.292664 403.000000,604.293823 
z"/>
<path fill="#000000" opacity="1.000000" stroke="none" 
	d="
M279.896667,547.435059 
	C279.913177,562.362793 279.957184,576.836121 279.903107,591.308960 
	C279.863098,602.021484 277.551880,604.298462 267.042175,604.297546 
	C252.568970,604.296326 238.095688,604.319336 223.622604,604.274902 
	C215.931961,604.251282 212.795578,601.112671 212.767334,593.312866 
	C212.711914,578.008057 212.722183,562.702820 212.772461,547.398010 
	C212.797516,539.768738 215.769257,536.763184 223.327347,536.737793 
	C238.465820,536.686890 253.604630,536.699646 268.743195,536.732422 
	C276.469879,536.749146 278.905701,539.037598 279.896667,547.435059 
z"/>
<path fill="#000000" opacity="1.000000" stroke="none" 
	d="
M246.000000,441.966003 
	C238.336685,441.968170 231.171570,442.072540 224.010513,441.946472 
	C215.861237,441.803009 212.831711,438.724213 212.802704,430.667328 
	C212.748138,415.507874 212.744034,400.348022 212.782059,385.188507 
	C212.800659,377.769165 215.748764,374.721619 222.965729,374.699463 
	C238.624985,374.651398 254.284668,374.647858 269.943817,374.712616 
	C276.303192,374.738922 279.657745,378.013855 279.705750,384.139648 
	C279.825836,399.457611 279.909790,414.776031 279.938599,430.094421 
	C279.956024,439.349609 277.364563,441.913513 267.989960,441.987915 
	C260.827148,442.044800 253.663361,441.978180 246.000000,441.966003 
z"/>
<path fill="#000000" opacity="1.000000" stroke="none" 
	d="
M360.266113,479.001526 
	C360.267975,490.666779 360.304810,501.832581 360.258209,512.997986 
	C360.227570,520.340820 357.341431,523.239563 349.894104,523.265564 
	C334.562408,523.319153 319.230133,523.307068 303.898499,523.237427 
	C296.580841,523.204224 293.704346,520.255371 293.682587,512.809753 
	C293.636292,496.978058 293.635376,481.145966 293.697754,465.314331 
	C293.724670,458.482910 296.586945,455.695465 303.521729,455.678558 
	C319.186829,455.640442 334.852234,455.648163 350.517273,455.703949 
	C357.252655,455.727936 360.148254,458.686279 360.250092,465.503326 
	C360.314819,469.835297 360.264465,474.169006 360.266113,479.001526 
z"/>
<path fill="#000000" opacity="1.000000" stroke="none" 
	d="
M360.261108,558.004395 
	C360.254669,570.164185 360.293884,581.825378 360.225403,593.485901 
	C360.178894,601.405579 357.258179,604.266357 349.277283,604.283447 
	C334.118195,604.315796 318.958771,604.324158 303.799805,604.266479 
	C296.705231,604.239502 293.744385,601.329468 293.712799,594.267822 
	C293.641998,578.442566 293.649994,562.616760 293.699738,546.791382 
	C293.721008,540.016907 296.701843,536.837463 303.325684,536.791992 
	C319.150513,536.683289 334.976929,536.671265 350.801697,536.774170 
	C357.115173,536.815186 360.087585,540.037781 360.233948,546.511169 
	C360.316772,550.174255 360.256622,553.840576 360.261108,558.004395 
z"/>
<path fill="#000000" opacity="1.000000" stroke="none" 
	d="
M360.253326,418.998352 
	C360.254791,423.496185 360.286346,427.494751 360.251831,431.492767 
	C360.189697,438.689575 357.685120,441.595642 350.417664,441.820587 
	C340.763977,442.119446 331.095703,441.950104 321.433716,441.976044 
	C315.436340,441.992126 309.435394,442.131744 303.442535,441.972076 
	C296.533020,441.787964 293.746399,438.933289 293.717529,432.095001 
	C293.650787,416.268616 293.646454,400.441589 293.703400,384.615143 
	C293.727509,377.912933 296.826691,374.750549 303.451904,374.720337 
	C319.111694,374.648956 334.772125,374.657074 350.431976,374.719269 
	C357.126038,374.745880 360.210510,377.838440 360.247833,384.513245 
	C360.311157,395.841431 360.257904,407.170288 360.253326,418.998352 
z"/>
</svg>