<svg version="1.1" id="Layer_1" xmlns="http://www.w3.org/2000/svg" xmlns:xlink="http://www.w3.org/1999/xlink" x="0px" y="0px"
	 width="100%" viewBox="0 0 1024 1024" enable-background="new 0 0 1024 1024" xml:space="preserve">
<path fill="#FFFFFF" opacity="1.000000" stroke="none" 
	d="
M545.000000,1025.000000 
	C363.333344,1025.000000 182.166672,1025.000000 1.000000,1025.000000 
	C1.000000,683.666687 1.000000,342.333344 1.000000,1.000000 
	C342.333344,1.000000 683.666687,1.000000 1025.000000,1.000000 
	C1025.000000,342.333344 1025.000000,683.666687 1025.000000,1025.000000 
	C865.166687,1025.000000 705.333313,1025.000000 545.000000,1025.000000 
M715.569824,884.419495 
	C715.887756,885.401611 716.205688,886.383667 716.580627,887.911682 
	C716.655334,888.269714 716.730042,888.627747 716.405762,889.565613 
	C719.758545,909.709534 729.402649,926.831970 742.859192,941.681274 
	C757.908203,958.287537 777.629578,966.818115 799.189026,971.494751 
	C799.732849,971.612732 800.394714,971.186279 801.649841,971.176941 
	C802.310120,971.280762 802.970337,971.384583 803.952148,971.953674 
	C804.970398,971.992432 805.988647,972.031189 807.747131,972.174377 
	C808.208496,972.037781 808.669922,971.901123 809.954163,971.938660 
	C811.631531,972.074951 813.308838,972.211182 815.435913,972.794800 
	C816.032349,972.696533 816.628845,972.598267 818.098938,972.593567 
	C823.394592,972.335754 828.690186,972.077881 834.331299,972.379639 
	C835.590332,971.975281 836.849304,971.570923 838.076050,970.989380 
	C838.076050,970.989380 837.927002,970.888245 838.621643,971.282288 
	C839.415527,971.218994 840.209473,971.155701 841.374817,971.544739 
	C842.325562,971.159973 843.276367,970.775208 844.811462,970.232971 
	C845.207642,970.157166 845.603821,970.081360 846.465576,970.525085 
	C847.272034,970.473816 848.120911,970.569458 848.878784,970.350220 
	C886.754578,959.393677 910.920837,934.757324 921.822021,897.000366 
	C922.655151,894.114807 922.720764,891.007629 923.222778,887.410828 
	C923.310181,887.022095 923.397644,886.633423 924.010071,886.008179 
	C924.020691,885.007202 924.031250,884.006226 924.109558,882.210022 
	C924.006165,881.442505 923.902771,880.674988 924.015259,879.118164 
	C924.146118,874.158020 924.277039,869.197815 924.782898,863.359863 
	C922.480652,822.192871 902.341125,792.428040 866.491821,773.007996 
	C855.465820,767.035095 843.739807,762.710815 829.890320,763.308838 
	C823.663025,763.359619 817.435669,763.410339 810.324707,763.142761 
	C807.021729,763.462402 803.642944,763.440491 800.427307,764.153809 
	C762.318420,772.607788 736.370667,795.544189 721.471191,831.245544 
	C717.637756,840.431152 714.673645,849.990112 715.385742,861.128662 
	C715.667114,868.044189 715.948425,874.959778 715.842224,882.511353 
	C715.871460,883.005249 715.900757,883.499207 715.569824,884.419495 
M941.837585,320.160767 
	C942.229187,320.033813 942.620850,319.906860 943.310181,320.332336 
	C945.070801,319.631439 947.641479,319.412537 948.409729,318.121246 
	C949.689758,315.969727 950.687378,312.915161 950.127625,310.656158 
	C949.738586,309.085938 946.540894,308.211700 943.875488,306.642883 
	C943.104980,306.665497 942.334473,306.688110 940.866882,306.276947 
	C934.734436,305.895752 928.602356,305.187775 922.469543,305.181763 
	C806.582397,305.068207 690.695129,305.031982 574.807922,305.006256 
	C568.983032,305.004974 563.158142,305.243713 556.485535,305.038147 
	C554.347168,305.288818 552.162292,305.342346 550.080627,305.833282 
	C546.341675,306.715088 543.608032,309.047180 543.550171,313.011047 
	C543.493896,316.870911 546.297729,319.312775 549.825439,319.694855 
	C555.169678,320.273712 560.600647,320.051666 566.930969,320.112061 
	C585.289795,320.109344 603.648560,320.106628 622.646301,320.572327 
	C626.096497,320.419617 629.546692,320.266937 633.886658,320.061920 
	C636.545715,320.132629 639.204773,320.203308 642.109558,320.925446 
	C656.092957,324.961151 658.217102,329.812042 651.861572,343.022522 
	C639.523560,368.668030 627.163818,394.303345 614.900879,419.984772 
	C603.356934,444.160309 591.940552,468.396729 580.433350,492.589874 
	C578.073669,497.550781 575.828918,502.596283 573.053894,507.322540 
	C569.076111,514.097168 562.085022,514.016174 557.935059,507.349060 
	C556.707947,505.377625 555.757629,503.228241 554.747803,501.127991 
	C547.324890,485.689423 539.896851,470.253265 532.512207,454.796387 
	C514.649475,417.407410 496.768250,380.027130 478.983368,342.601105 
	C472.975159,329.957520 476.790558,323.516205 490.773895,321.771240 
	C494.187439,321.345306 497.725708,320.609131 500.811829,319.169342 
	C505.735657,316.872223 506.444641,310.781799 501.827881,307.989532 
	C498.715851,306.107391 494.423523,306.176758 489.765259,305.366608 
	C487.104156,305.292206 484.443085,305.154144 481.781952,305.152710 
	C407.730164,305.112427 333.678345,305.081299 259.626556,305.073212 
	C256.470306,305.072876 253.314072,305.306122 249.422577,305.162506 
	C247.613861,305.414734 245.805130,305.666962 243.557053,305.469452 
	C237.690445,306.794098 234.738663,309.636230 235.255188,313.462952 
	C235.824738,317.682495 240.190948,320.626801 245.812103,320.151062 
	C246.875610,320.099060 247.939117,320.047058 249.724106,320.208038 
	C250.472977,320.235229 251.221848,320.262421 252.474030,320.788208 
	C253.376999,320.693329 254.279953,320.598419 255.990402,320.671692 
	C257.629974,320.852112 259.269531,321.032562 261.026978,321.908661 
	C266.129639,324.827850 271.732758,327.150482 276.165039,330.868774 
	C279.298553,333.497498 281.198669,337.848022 283.047852,341.717377 
	C302.425293,382.264374 321.645935,422.886261 340.981018,463.453522 
	C359.386475,502.070404 377.869476,540.650330 396.330933,579.240540 
	C415.008301,618.282043 433.699127,657.317139 452.388458,696.352905 
	C456.485748,704.910828 460.395569,713.566772 464.764984,721.983887 
	C469.429535,730.969543 477.140198,734.336121 485.318542,731.579590 
	C490.852356,729.714417 493.768219,725.321777 496.115173,720.434265 
	C506.989899,697.788208 517.867188,675.143127 528.653320,652.454834 
	C550.949707,605.555115 573.179504,558.623718 595.455261,511.714172 
	C605.737244,490.061859 616.082092,468.439362 626.311951,446.762512 
	C626.815796,445.694824 626.488770,444.235016 626.802673,442.277740 
	C628.487549,438.812439 630.172363,435.347137 632.565247,431.929321 
	C633.490540,430.606079 634.608337,429.376953 635.309387,427.944000 
	C639.322571,419.740784 643.257935,411.499237 647.179443,403.251556 
	C652.739258,391.558411 658.064026,379.748444 663.858643,368.173401 
	C669.936707,356.032227 676.116150,343.913391 682.969727,332.205383 
	C685.151428,328.478485 689.632202,326.097412 693.908569,323.026611 
	C699.534790,322.804413 705.160950,322.582214 710.895874,323.055328 
	C719.284912,326.522125 724.689270,332.776428 728.508118,340.904053 
	C735.419189,355.612793 742.674988,370.160126 749.860657,384.738434 
	C750.630615,386.300476 751.889893,387.621338 753.280212,389.694580 
	C755.561157,394.756104 757.842163,399.817657 759.925537,405.628510 
	C760.250671,406.558655 760.495972,407.526337 760.912659,408.413483 
	C771.381714,430.701569 781.797852,453.014893 792.368713,475.254639 
	C810.085571,512.528687 827.875549,549.768005 845.686218,586.997437 
	C862.850830,622.876526 880.018494,658.754517 897.325562,694.565002 
	C901.659668,703.532776 906.304810,712.370850 911.256409,721.011047 
	C913.791565,725.434631 919.773743,727.718079 923.126709,726.559875 
	C926.899780,725.256409 932.647034,717.625977 932.995483,713.129822 
	C933.878113,711.306946 934.760803,709.484070 936.262329,707.744263 
	C936.637085,707.415222 937.011841,707.086243 937.386658,706.757263 
	C937.083740,706.497803 936.780884,706.238342 936.688477,705.299316 
	C937.389404,703.807129 938.090271,702.314941 939.490723,700.864197 
	C940.164856,698.877869 940.838928,696.891541 941.708374,694.270142 
	C942.088562,693.472900 942.468689,692.675720 943.557434,691.892822 
	C944.117676,691.330505 944.880859,690.866577 945.207947,690.191284 
	C950.760254,678.730408 956.290466,667.258545 961.757202,655.756653 
	C965.510925,647.859009 969.159607,639.911560 973.440308,631.604065 
	C976.661560,624.733459 979.983276,617.907349 983.052795,610.969604 
	C984.219910,608.331665 984.807190,605.437256 985.683777,602.087097 
	C985.791016,601.726929 985.898315,601.366699 986.617554,600.928162 
	C986.637451,600.571228 986.657288,600.214355 986.738220,599.386108 
	C986.738220,599.386108 986.971802,598.972168 987.676392,598.823425 
	C995.362793,583.192505 1003.386780,567.713196 1010.518311,551.833130 
	C1012.511658,547.394470 1011.872437,541.773621 1012.395691,536.019653 
	C1012.319031,535.347229 1012.242371,534.674744 1012.660522,533.469788 
	C1010.905945,527.807983 1009.796265,521.841858 1007.291748,516.533936 
	C991.249207,482.533966 974.875305,448.690643 958.662354,414.770905 
	C949.336609,395.260162 940.052063,375.729218 930.866943,356.152039 
	C927.551636,349.085724 924.301758,341.963135 921.548706,334.667450 
	C919.644287,329.620514 922.029114,325.583191 927.027832,323.517731 
	C928.464966,322.923950 929.775269,322.023071 931.838257,321.129547 
	C932.531067,321.005524 933.223877,320.881500 934.659302,321.109222 
	C935.150940,320.924530 935.642639,320.739838 936.821106,320.659912 
	C937.513672,320.603851 938.206177,320.547821 939.008789,321.053406 
	C939.750549,320.800140 940.492249,320.546875 941.837585,320.160767 
M41.248413,417.092743 
	C38.695362,422.055328 35.989296,426.946045 33.619114,431.994476 
	C27.500025,445.028107 21.480534,458.109436 15.572484,471.239777 
	C14.960157,472.600616 15.362934,474.418213 15.226315,476.678101 
	C15.086810,477.092590 14.947305,477.507050 14.167982,477.995270 
	C14.175147,479.005493 14.182312,480.015686 14.181844,481.922913 
	C14.177917,484.612671 14.173989,487.302460 13.547992,490.383881 
	C14.693847,494.809601 15.176452,499.546997 17.087156,503.613342 
	C38.458454,549.095825 60.019485,594.489319 81.600990,639.872742 
	C87.963425,653.252075 94.631454,666.486023 101.011925,679.856995 
	C106.589806,691.546143 105.649139,694.653442 95.253914,700.842712 
	C95.040306,700.969910 95.021103,701.423645 94.142807,701.957703 
	C92.816391,702.116577 91.489967,702.275391 89.329414,702.127502 
	C86.090248,702.743774 82.411621,702.615784 79.739922,704.193176 
	C77.245285,705.666016 74.766411,708.729675 74.188438,711.492249 
	C73.452477,715.010132 76.387543,717.634583 79.903740,718.535767 
	C82.570854,719.219238 85.394913,719.290283 89.057663,719.777222 
	C91.221931,719.838745 93.386200,719.953674 95.550476,719.953979 
	C172.173279,719.965393 248.796082,719.969727 325.418884,719.951294 
	C327.909027,719.950684 330.399078,719.702576 333.700928,719.813416 
	C335.975281,719.376465 338.327484,719.173523 340.505920,718.448425 
	C343.875885,717.326721 347.020599,714.955994 346.142731,711.313965 
	C345.477478,708.553833 343.012634,705.379761 340.487823,704.132935 
	C337.423584,702.619629 333.454468,702.938660 328.995331,702.283325 
	C325.697693,702.072021 322.400024,701.860779 318.944427,700.974915 
	C308.363190,698.035095 301.917084,690.734314 297.380066,681.111206 
	C289.002045,663.341431 280.368988,645.692078 271.859558,627.984192 
	C255.640961,594.233704 239.358261,560.513794 223.246094,526.712585 
	C209.065094,496.962677 195.283752,467.021088 180.960983,437.340210 
	C160.051132,394.009064 138.839905,350.823151 117.658829,307.623535 
	C116.291588,304.834991 114.370377,302.179840 112.204399,299.950867 
	C108.112511,295.739990 102.026413,295.710846 97.939178,299.863464 
	C96.002785,301.830841 94.423103,304.304382 93.209892,306.804840 
	C79.109619,335.865387 65.049232,364.945770 51.129120,394.092957 
	C47.846310,400.966797 45.125896,408.109222 42.032478,415.726471 
	C41.994114,416.130859 41.955753,416.535278 41.248413,417.092743 
M208.067444,51.305775 
	C206.760544,51.341496 205.453659,51.377216 203.247162,51.092442 
	C166.166931,51.370270 137.864822,68.038055 117.133530,98.030647 
	C106.808578,112.968056 101.376717,129.791809 101.258530,149.045029 
	C101.287994,152.986420 101.317467,156.927826 101.037491,161.755020 
	C102.301315,168.953156 103.034904,176.293060 104.915375,183.326324 
	C116.759995,227.626923 158.036163,263.117004 211.261490,260.060364 
	C258.205383,257.364471 300.138306,225.353897 309.133911,172.997971 
	C316.802277,128.366867 299.933472,93.083572 262.964813,67.328346 
	C246.741821,56.026154 228.639648,50.753056 208.067444,51.305775 
z"/>
<path fill="#010101" opacity="1.000000" stroke="none" 
	d="
M557.333252,305.370667 
	C563.158142,305.243713 568.983032,305.004974 574.807922,305.006256 
	C690.695129,305.031982 806.582397,305.068207 922.469543,305.181763 
	C928.602356,305.187775 934.734436,305.895752 940.991089,306.686920 
	C941.296143,307.697144 941.289307,308.503174 941.686890,308.865753 
	C945.707703,312.532318 944.150635,315.335480 940.440002,317.922791 
	C939.814026,318.359222 939.374023,319.062408 938.718506,319.863159 
	C938.692200,320.219940 938.795471,320.355865 938.898743,320.491791 
	C938.206177,320.547821 937.513672,320.603851 936.468140,320.335876 
	C935.382324,320.260376 934.649475,320.508911 933.916687,320.757446 
	C933.223877,320.881500 932.531067,321.005524 931.114441,320.996094 
	C929.258423,320.926331 928.126282,320.990051 926.782959,320.815521 
	C923.588684,322.095184 919.773254,322.918610 917.802063,325.280884 
	C914.116882,329.697144 916.288696,334.910461 918.405579,339.413971 
	C936.252441,377.382141 954.167725,415.318573 972.209290,453.194641 
	C982.593445,474.994781 993.113708,496.732666 1003.837585,518.367310 
	C1009.633057,530.059265 1012.190125,541.180603 1005.823914,553.966614 
	C987.938477,589.888000 970.817261,626.190674 953.494690,662.390808 
	C947.604614,674.699585 942.161194,687.222778 936.220947,699.506470 
	C933.269043,705.610718 930.215759,711.816345 926.170593,717.195740 
	C922.683594,721.832886 917.421509,721.042542 914.055908,716.210144 
	C911.782471,712.945923 909.698425,709.498657 907.953308,705.926270 
	C899.401855,688.421082 891.008362,670.838806 882.528748,653.298401 
	C871.662781,630.821716 860.652710,608.413879 849.914490,585.876404 
	C836.309326,557.321716 822.933472,528.657898 809.420959,500.058960 
	C803.944763,488.468567 798.367615,476.925903 792.838684,465.360413 
	C783.718140,446.281921 774.614807,427.195129 765.432312,408.146515 
	C764.998413,407.246399 763.868042,406.682037 762.882751,405.755981 
	C762.569519,405.214325 762.435608,404.878021 762.338379,404.179993 
	C759.546570,398.094604 756.718018,392.370972 753.682983,386.336182 
	C749.149658,377.134399 744.822876,368.243774 740.651428,358.985168 
	C736.279175,349.043427 732.133240,339.263062 727.099304,329.963379 
	C723.299011,322.942841 716.273254,320.488251 708.556641,320.131531 
	C705.563293,319.993134 702.559570,320.093201 699.560974,320.053589 
	C688.281616,319.904663 680.049194,324.781158 675.144348,334.989899 
	C667.796265,350.283936 660.536865,365.620544 653.208984,380.924316 
	C642.208008,403.899078 631.174438,426.858215 620.165344,449.829102 
	C600.232483,491.419434 580.288086,533.004272 560.407837,574.619751 
	C558.334412,578.960022 556.659790,583.490845 554.531372,588.140320 
	C548.562500,600.549622 542.943176,612.790283 537.145325,624.945862 
	C525.400330,649.569824 513.579651,674.157837 501.743439,698.738098 
	C498.284302,705.921692 495.197174,713.359497 490.999329,720.094788 
	C484.624329,730.323303 475.502502,730.232544 468.983185,720.079956 
	C465.772064,715.079224 463.450958,709.493652 460.867218,704.105530 
	C441.878357,664.506287 422.895172,624.904175 403.974518,585.272339 
	C395.949188,568.462158 388.142914,551.547302 380.093811,534.748657 
	C377.997253,530.373047 375.362762,526.255188 372.861328,521.670227 
	C371.799835,519.082153 370.943848,516.798950 369.891296,514.610168 
	C353.593201,480.718506 337.250702,446.848236 320.958069,412.953979 
	C308.558380,387.158295 296.360474,361.264099 283.748291,335.573029 
	C280.392883,328.738068 275.772064,322.577789 266.884613,321.700623 
	C265.854218,321.404724 264.941284,321.405609 263.668121,321.197144 
	C262.508301,321.062866 261.708679,321.137909 260.909088,321.212982 
	C259.269531,321.032562 257.629974,320.852112 255.484818,320.307129 
	C253.976395,320.058258 252.973557,320.173920 251.970718,320.289581 
	C251.221848,320.262421 250.472977,320.235229 249.334015,319.750977 
	C248.253830,318.885437 247.403229,318.616547 246.903915,318.042267 
	C245.428131,316.344971 242.964859,314.499329 243.007385,312.763641 
	C243.052567,310.919281 245.415619,309.031372 246.982605,307.365814 
	C247.801514,306.495392 249.084473,306.061554 250.157837,305.430511 
	C253.314072,305.306122 256.470306,305.072876 259.626556,305.073212 
	C333.678345,305.081299 407.730164,305.112427 481.781952,305.152710 
	C484.443085,305.154144 487.104156,305.292206 490.403107,305.648468 
	C491.993805,306.226440 493.206268,306.251404 493.851410,306.868988 
	C495.877594,308.808563 499.191040,310.989380 499.166107,313.042358 
	C499.140900,315.119415 496.069641,317.818939 493.708923,319.029205 
	C491.170868,320.330505 487.921295,320.325317 484.958313,320.702423 
	C473.099701,322.211639 469.701141,327.782257 473.893036,338.997040 
	C474.300659,340.087585 474.780670,341.153839 475.276093,342.208313 
	C483.488647,359.689331 491.584869,377.226318 499.954651,394.631805 
	C515.470215,426.897308 531.146973,459.085266 546.755615,491.306030 
	C550.239014,498.496796 553.386719,505.875702 557.290344,512.830444 
	C561.388184,520.131104 569.271423,520.134583 573.651001,513.018372 
	C576.257202,508.783600 578.336060,504.211670 580.493408,499.715210 
	C600.302856,458.427582 620.097900,417.132965 639.850037,375.817871 
	C645.666992,363.650665 651.713440,351.572083 656.960510,339.159485 
	C662.009521,327.215302 657.246216,320.455139 644.306030,319.983276 
	C643.496582,319.953735 642.678101,320.171356 641.863831,320.273987 
	C639.204773,320.203308 636.545715,320.132629 633.086365,319.925842 
	C628.859863,319.894470 625.433594,319.999176 622.007385,320.103882 
	C603.648560,320.106628 585.289795,320.109344 566.109985,319.961121 
	C561.684448,319.411224 557.852905,319.622711 554.555481,318.397156 
	C552.381836,317.589233 549.871155,314.861786 549.582520,312.715271 
	C549.357239,311.039886 552.195374,308.811920 553.919678,307.075104 
	C554.768494,306.220062 556.177673,305.921204 557.333252,305.370667 
z"/>
<path fill="#000000" opacity="1.000000" stroke="none" 
	d="
M319.102386,701.649536 
	C322.400024,701.860779 325.697693,702.072021 329.554962,702.704529 
	C332.324249,703.754883 334.879150,703.892639 336.654572,705.139893 
	C338.784058,706.635803 341.748596,709.187317 341.610352,711.081726 
	C341.448486,713.300049 338.429932,715.399475 336.459320,717.358093 
	C335.492035,718.319458 334.092896,718.846313 332.889221,719.569824 
	C330.399078,719.702576 327.909027,719.950684 325.418884,719.951294 
	C248.796082,719.969727 172.173279,719.965393 95.550476,719.953979 
	C93.386200,719.953674 91.221931,719.838745 88.489120,719.384644 
	C86.999115,718.667358 86.088638,718.306274 85.154221,718.024536 
	C81.704865,716.984314 78.550644,714.830872 79.150589,711.239746 
	C79.540123,708.908020 82.450989,706.790588 84.602776,705.030151 
	C86.137215,703.774719 88.287865,703.272522 90.163544,702.434204 
	C91.489967,702.275391 92.816391,702.116577 94.850632,702.000671 
	C96.038910,702.027466 96.519363,702.011292 97.240784,702.225220 
	C106.881058,701.508667 110.742203,696.087280 108.297623,687.109619 
	C107.644234,684.710144 106.869774,682.301636 105.802979,680.063049 
	C87.836563,642.361877 69.826065,604.681702 51.754086,567.031067 
	C51.193134,565.862427 49.868687,565.060303 48.711044,563.803101 
	C43.646896,553.045959 38.771881,542.572998 34.016617,531.763977 
	C34.076881,530.958618 34.017391,530.489258 33.966301,529.643188 
	C29.510262,519.619080 25.210543,509.890930 20.534779,500.347015 
	C15.917082,490.921631 15.415622,481.574158 19.890413,472.024658 
	C24.971395,461.181458 30.095232,450.357758 35.061825,439.462372 
	C35.660999,438.147949 35.397045,436.440063 35.616390,434.592163 
	C36.121983,433.506165 36.544319,432.742523 37.321507,431.987701 
	C38.597023,430.663635 39.703121,429.421265 40.405800,427.981903 
	C43.249226,422.157745 45.957142,416.267548 48.735565,410.411469 
	C58.353764,390.139313 68.001503,369.881134 77.541656,349.572357 
	C78.015121,348.564423 77.581009,347.130157 77.637741,345.571533 
	C78.117783,344.486847 78.529587,343.725006 79.296875,342.977875 
	C81.387138,340.021759 83.260597,337.122192 84.829475,334.066223 
	C88.780922,326.369354 92.440422,318.518890 96.533928,310.900360 
	C98.386284,307.452881 100.543343,303.695435 105.381683,303.954346 
	C109.875420,304.194855 112.247284,307.110840 114.129265,310.981750 
	C124.231941,331.760925 134.473007,352.473114 144.759949,373.161865 
	C145.482529,374.615082 146.960464,375.692719 148.308960,377.193359 
	C148.830719,378.275574 149.130676,379.109497 149.100311,380.045715 
	C148.863571,381.061981 148.709152,382.096771 149.087051,382.872162 
	C158.461319,402.108185 167.875366,421.324951 177.366257,440.503632 
	C177.792969,441.365906 179.006485,441.838776 180.092850,442.695801 
	C180.712021,443.894623 181.091858,444.890747 181.140106,445.996429 
	C183.889755,452.686188 186.970932,459.266388 190.085480,465.830780 
	C190.086166,465.832245 190.592163,465.593994 191.099060,465.675232 
	C191.707947,466.885864 192.079880,467.888947 192.121796,469.003418 
	C194.546219,474.398376 197.300644,479.682007 200.287415,485.199677 
	C200.843979,486.249786 201.168182,487.065887 201.158508,487.989227 
	C200.760056,488.705292 200.443207,489.433746 200.667084,489.905701 
	C211.599930,512.953369 222.565674,535.985535 233.607269,558.981201 
	C234.018311,559.837219 235.218872,560.314148 236.285065,561.200745 
	C236.845871,562.249207 237.173141,563.064697 237.166107,563.985901 
	C237.018311,567.640137 237.691696,570.896606 241.933655,572.399170 
	C242.965073,574.380432 243.738983,576.129211 244.177185,577.983154 
	C244.056305,579.301025 244.019379,580.632202 244.525513,581.707764 
	C248.848434,590.894104 253.324280,600.008545 257.649231,609.193970 
	C264.381561,623.492249 270.839966,637.922791 277.770905,652.123291 
	C284.486633,665.882996 291.461578,679.525818 298.719971,693.005981 
	C301.388214,697.961426 305.432007,701.906677 312.308807,701.089600 
	C313.030701,701.243591 313.432617,701.382385 313.904999,701.773499 
	C314.653961,701.985107 315.332489,701.944397 316.404968,701.898193 
	C317.566772,701.811646 318.334564,701.730591 319.102386,701.649536 
z"/>
<path fill="#010101" opacity="1.000000" stroke="none" 
	d="
M924.407959,864.237671 
	C924.277039,869.197815 924.146118,874.158020 923.602356,879.532349 
	C923.117310,880.964172 923.045227,881.981873 922.930908,883.308777 
	C922.808105,884.026062 922.727600,884.434204 922.324219,884.977417 
	C921.692688,885.863403 921.297119,886.590881 921.087463,887.368469 
	C909.640137,929.833740 883.268494,957.559021 840.471252,969.122620 
	C839.532654,969.376282 838.771118,970.285034 837.927002,970.888245 
	C837.927002,970.888245 838.076050,970.989380 837.761230,970.878052 
	C836.292908,971.117859 835.139404,971.469055 833.985840,971.820129 
	C828.690186,972.077881 823.394592,972.335754 817.589111,972.292969 
	C816.381653,972.110718 815.683899,972.229126 814.986206,972.347473 
	C813.308838,972.211182 811.631531,972.074951 809.552856,971.585205 
	C808.434265,971.160278 807.717041,971.088867 806.709229,970.942505 
	C806.022156,970.817383 805.625732,970.767212 805.046875,970.416870 
	C802.811157,969.496094 800.780579,968.783142 798.701050,968.268372 
	C762.288025,959.256226 737.416809,937.037537 723.421631,902.425903 
	C721.204468,896.942749 719.322449,891.324097 717.258667,885.469727 
	C717.148743,884.781006 717.065674,884.390625 717.173462,883.832397 
	C716.986206,883.068176 716.607971,882.471741 716.229797,881.875305 
	C715.948425,874.959778 715.667114,868.044189 715.753906,860.505127 
	C716.287720,859.413269 716.513489,858.957153 716.610352,858.475098 
	C726.099243,811.264465 753.808411,780.559204 799.914551,766.540039 
	C803.646179,765.405334 807.442261,764.482361 811.208374,763.461121 
	C817.435669,763.410339 823.663025,763.359619 830.507263,763.684082 
	C844.841492,766.470703 857.704834,771.146912 869.586182,778.471924 
	C895.328918,794.342651 912.675110,816.527649 920.285034,845.987244 
	C921.844177,852.022949 923.043091,858.151794 924.407959,864.237671 
z"/>
<path fill="#000000" opacity="1.000000" stroke="none" 
	d="
M204.146759,51.412937 
	C205.453659,51.377216 206.760544,51.341496 208.621140,51.695358 
	C218.565460,54.030228 228.389053,54.818432 237.264893,58.139511 
	C263.055634,67.789658 282.599640,84.941177 296.476135,109.027893 
	C314.785583,140.809204 312.383514,172.140549 295.410736,203.034225 
	C283.432983,224.835983 265.012512,240.074982 242.280640,250.167435 
	C212.133331,263.552185 183.018051,260.249084 155.588440,243.405807 
	C126.775986,225.713364 109.232460,199.676819 103.050377,166.225677 
	C102.712547,164.397690 101.925095,162.652786 101.346939,160.869217 
	C101.317467,156.927826 101.287994,152.986420 101.669601,148.452362 
	C102.234894,147.567444 102.490761,147.287811 102.528854,146.981094 
	C105.934814,119.561241 118.489159,97.183769 139.088654,78.870758 
	C154.324142,65.326355 171.748352,56.936337 191.796310,53.738701 
	C195.931564,53.079132 200.030884,52.194069 204.146759,51.412937 
z"/>
<path fill="#B0B0B0" opacity="1.000000" stroke="none" 
	d="
M267.002075,321.997467 
	C275.772064,322.577789 280.392883,328.738068 283.748291,335.573029 
	C296.360474,361.264099 308.558380,387.158295 320.958069,412.953979 
	C337.250702,446.848236 353.593201,480.718506 369.891296,514.610168 
	C370.943848,516.798950 371.799835,519.082153 372.766968,522.049561 
	C373.882660,525.552734 374.820953,528.402832 376.099304,531.091187 
	C387.820404,555.740173 399.637146,580.343628 411.354828,604.994202 
	C429.001953,642.118469 446.548187,679.290771 464.276520,716.376038 
	C465.970917,719.920471 468.241699,723.388489 470.958862,726.202454 
	C476.244141,731.675842 483.809448,731.587769 489.175171,726.166199 
	C491.472717,723.844727 493.379364,720.987549 494.901337,718.079590 
	C497.676056,712.777771 499.978302,707.231079 502.570740,701.831177 
	C515.896179,674.074890 529.325317,646.368042 542.556702,618.567078 
	C547.339905,608.516846 551.674011,598.252930 556.445801,587.836182 
	C578.868225,541.133911 601.050598,494.678345 623.274475,448.242676 
	C624.163818,446.384369 625.448181,444.715118 626.548584,442.957764 
	C626.488770,444.235016 626.815796,445.694824 626.311951,446.762512 
	C616.082092,468.439362 605.737244,490.061859 595.455261,511.714172 
	C573.179504,558.623718 550.949707,605.555115 528.653320,652.454834 
	C517.867188,675.143127 506.989899,697.788208 496.115173,720.434265 
	C493.768219,725.321777 490.852356,729.714417 485.318542,731.579590 
	C477.140198,734.336121 469.429535,730.969543 464.764984,721.983887 
	C460.395569,713.566772 456.485748,704.910828 452.388458,696.352905 
	C433.699127,657.317139 415.008301,618.282043 396.330933,579.240540 
	C377.869476,540.650330 359.386475,502.070404 340.981018,463.453522 
	C321.645935,422.886261 302.425293,382.264374 283.047852,341.717377 
	C281.198669,337.848022 279.298553,333.497498 276.165039,330.868774 
	C271.732758,327.150482 266.129639,324.827850 260.968018,321.560822 
	C261.708679,321.137909 262.508301,321.062866 263.872711,321.445007 
	C265.292389,321.933929 266.147217,321.965698 267.002075,321.997467 
z"/>
<path fill="#9F9F9F" opacity="1.000000" stroke="none" 
	d="
M641.986694,320.599731 
	C642.678101,320.171356 643.496582,319.953735 644.306030,319.983276 
	C657.246216,320.455139 662.009521,327.215302 656.960510,339.159485 
	C651.713440,351.572083 645.666992,363.650665 639.850037,375.817871 
	C620.097900,417.132965 600.302856,458.427582 580.493408,499.715210 
	C578.336060,504.211670 576.257202,508.783600 573.651001,513.018372 
	C569.271423,520.134583 561.388184,520.131104 557.290344,512.830444 
	C553.386719,505.875702 550.239014,498.496796 546.755615,491.306030 
	C531.146973,459.085266 515.470215,426.897308 499.954651,394.631805 
	C491.584869,377.226318 483.488647,359.689331 475.276093,342.208313 
	C474.780670,341.153839 474.300659,340.087585 473.893036,338.997040 
	C469.701141,327.782257 473.099701,322.211639 484.958313,320.702423 
	C487.921295,320.325317 491.170868,320.330505 493.708923,319.029205 
	C496.069641,317.818939 499.140900,315.119415 499.166107,313.042358 
	C499.191040,310.989380 495.877594,308.808563 493.851410,306.868988 
	C493.206268,306.251404 491.993805,306.226440 490.850098,305.651733 
	C494.423523,306.176758 498.715851,306.107391 501.827881,307.989532 
	C506.444641,310.781799 505.735657,316.872223 500.811829,319.169342 
	C497.725708,320.609131 494.187439,321.345306 490.773895,321.771240 
	C476.790558,323.516205 472.975159,329.957520 478.983368,342.601105 
	C496.768250,380.027130 514.649475,417.407410 532.512207,454.796387 
	C539.896851,470.253265 547.324890,485.689423 554.747803,501.127991 
	C555.757629,503.228241 556.707947,505.377625 557.935059,507.349060 
	C562.085022,514.016174 569.076111,514.097168 573.053894,507.322540 
	C575.828918,502.596283 578.073669,497.550781 580.433350,492.589874 
	C591.940552,468.396729 603.356934,444.160309 614.900879,419.984772 
	C627.163818,394.303345 639.523560,368.668030 651.861572,343.022522 
	C658.217102,329.812042 656.092957,324.961151 641.986694,320.599731 
z"/>
<path fill="#505050" opacity="1.000000" stroke="none" 
	d="
M101.192215,161.312119 
	C101.925095,162.652786 102.712547,164.397690 103.050377,166.225677 
	C109.232460,199.676819 126.775986,225.713364 155.588440,243.405807 
	C183.018051,260.249084 212.133331,263.552185 242.280640,250.167435 
	C265.012512,240.074982 283.432983,224.835983 295.410736,203.034225 
	C312.383514,172.140549 314.785583,140.809204 296.476135,109.027893 
	C282.599640,84.941177 263.055634,67.789658 237.264893,58.139511 
	C228.389053,54.818432 218.565460,54.030228 209.009918,51.751724 
	C228.639648,50.753056 246.741821,56.026154 262.964813,67.328346 
	C299.933472,93.083572 316.802277,128.366867 309.133911,172.997971 
	C300.138306,225.353897 258.205383,257.364471 211.261490,260.060364 
	C158.036163,263.117004 116.759995,227.626923 104.915375,183.326324 
	C103.034904,176.293060 102.301315,168.953156 101.192215,161.312119 
z"/>
<path fill="#454545" opacity="1.000000" stroke="none" 
	d="
M763.062012,405.961334 
	C763.868042,406.682037 764.998413,407.246399 765.432312,408.146515 
	C774.614807,427.195129 783.718140,446.281921 792.838684,465.360413 
	C798.367615,476.925903 803.944763,488.468567 809.420959,500.058960 
	C822.933472,528.657898 836.309326,557.321716 849.914490,585.876404 
	C860.652710,608.413879 871.662781,630.821716 882.528748,653.298401 
	C891.008362,670.838806 899.401855,688.421082 907.953308,705.926270 
	C909.698425,709.498657 911.782471,712.945923 914.055908,716.210144 
	C917.421509,721.042542 922.683594,721.832886 926.170593,717.195740 
	C930.215759,711.816345 933.269043,705.610718 936.220947,699.506470 
	C942.161194,687.222778 947.604614,674.699585 953.494690,662.390808 
	C970.817261,626.190674 987.938477,589.888000 1005.823914,553.966614 
	C1012.190125,541.180603 1009.633057,530.059265 1003.837585,518.367310 
	C993.113708,496.732666 982.593445,474.994781 972.209290,453.194641 
	C954.167725,415.318573 936.252441,377.382141 918.405579,339.413971 
	C916.288696,334.910461 914.116882,329.697144 917.802063,325.280884 
	C919.773254,322.918610 923.588684,322.095184 926.557312,321.073547 
	C918.017944,324.851593 916.154724,329.577454 920.281128,338.547150 
	C927.027039,353.210938 933.961487,367.788025 940.832458,382.394135 
	C964.606506,432.931946 988.387451,483.466522 1012.165771,534.002319 
	C1012.242371,534.674744 1012.319031,535.347229 1012.219482,536.762146 
	C1010.438354,543.228699 1009.498718,549.250549 1007.096191,554.617493 
	C1001.317261,567.526550 994.810669,580.108704 988.711426,592.877075 
	C987.813477,594.756836 987.536194,596.933044 986.971802,598.972168 
	C986.971802,598.972168 986.738220,599.386108 986.498413,599.742249 
	C986.029358,600.360779 985.945068,600.663513 986.005615,601.006531 
	C985.898315,601.366699 985.791016,601.726929 985.378296,602.558716 
	C980.530518,612.645264 975.988220,622.260193 971.156677,632.022827 
	C962.458679,649.454041 954.016907,666.721619 945.678467,684.039001 
	C944.479553,686.528992 943.779602,689.259338 942.848755,691.878540 
	C942.468689,692.675720 942.088562,693.472900 941.285034,694.656616 
	C940.171509,696.969666 939.481323,698.896240 938.791199,700.822754 
	C938.090271,702.314941 937.389404,703.807129 936.328674,705.730835 
	C935.860413,706.661987 935.751953,707.161560 935.643433,707.661133 
	C934.760803,709.484070 933.878113,711.306946 932.546753,713.524292 
	C931.358093,715.012695 930.611267,716.102112 929.879150,717.201477 
	C924.608582,725.116760 917.205200,725.246094 911.884277,717.396545 
	C910.117859,714.790771 908.569946,712.003784 907.205383,709.163513 
	C881.050903,654.723389 854.895142,600.283875 828.831299,545.800354 
	C807.434692,501.073212 786.149536,456.292725 764.858215,411.515289 
	C764.029846,409.773163 763.650574,407.817474 763.062012,405.961334 
z"/>
<path fill="#C2C2C2" opacity="1.000000" stroke="none" 
	d="
M192.451797,468.892059 
	C192.079880,467.888947 191.707947,466.885864 191.192093,465.281952 
	C187.856003,458.416382 184.663849,452.151611 181.471695,445.886841 
	C181.091858,444.890747 180.712021,443.894623 180.185654,442.299072 
	C173.375732,427.981934 166.765121,414.238251 160.026917,400.557465 
	C156.613708,393.627563 152.970078,386.811127 149.430634,379.943390 
	C149.130676,379.109497 148.830719,378.275574 148.402039,376.816467 
	C136.670120,352.559723 125.144928,328.889008 113.328773,305.364441 
	C112.283768,303.283997 109.340103,302.157227 107.136139,300.278687 
	C103.337662,298.331207 100.769012,299.628662 98.684738,303.158691 
	C93.938622,311.703552 89.298325,319.959137 85.039787,328.407135 
	C82.677620,333.093140 80.953232,338.100616 78.941391,342.963196 
	C78.529587,343.725006 78.117783,344.486847 77.311508,345.626953 
	C76.555656,346.554047 76.121445,347.068420 75.843452,347.656647 
	C65.231430,370.112427 54.633736,392.574951 43.718620,415.027344 
	C42.984322,415.054779 42.565540,415.091431 42.146759,415.128113 
	C45.125896,408.109222 47.846310,400.966797 51.129120,394.092957 
	C65.049232,364.945770 79.109619,335.865387 93.209892,306.804840 
	C94.423103,304.304382 96.002785,301.830841 97.939178,299.863464 
	C102.026413,295.710846 108.112511,295.739990 112.204399,299.950867 
	C114.370377,302.179840 116.291588,304.834991 117.658829,307.623535 
	C138.839905,350.823151 160.051132,394.009064 180.960983,437.340210 
	C195.283752,467.021088 209.065094,496.962677 223.246094,526.712585 
	C239.358261,560.513794 255.640961,594.233704 271.859558,627.984192 
	C280.368988,645.692078 289.002045,663.341431 297.380066,681.111206 
	C301.917084,690.734314 308.363190,698.035095 319.023407,701.312256 
	C318.334564,701.730591 317.566772,701.811646 316.193665,701.672485 
	C315.003754,701.475281 314.419159,701.498291 313.834534,701.521240 
	C313.432617,701.382385 313.030701,701.243591 312.143860,700.788391 
	C305.863251,698.118774 301.679474,693.991516 298.723999,688.572388 
	C296.338806,684.198792 293.891815,679.847717 291.750885,675.353882 
	C277.033569,644.462158 262.401947,613.529541 247.688629,582.635986 
	C246.877228,580.932251 245.582596,579.458679 244.512878,577.877991 
	C243.738983,576.129211 242.965073,574.380432 242.057770,572.048157 
	C240.449722,568.936523 238.975052,566.408325 237.500397,563.880188 
	C237.173141,563.064697 236.845871,562.249207 236.378387,560.829956 
	C235.608093,558.697998 235.039948,557.140747 234.338669,555.645996 
	C224.899994,535.527222 215.472549,515.403198 205.953629,495.322418 
	C204.720810,492.721741 202.991638,490.356354 201.492386,487.881958 
	C201.168182,487.065887 200.843979,486.249786 200.380432,484.828247 
	C197.644638,479.112518 195.048218,474.002289 192.451797,468.892059 
z"/>
<path fill="#B0B0B0" opacity="1.000000" stroke="none" 
	d="
M762.882751,405.755981 
	C763.650574,407.817474 764.029846,409.773163 764.858215,411.515289 
	C786.149536,456.292725 807.434692,501.073212 828.831299,545.800354 
	C854.895142,600.283875 881.050903,654.723389 907.205383,709.163513 
	C908.569946,712.003784 910.117859,714.790771 911.884277,717.396545 
	C917.205200,725.246094 924.608582,725.116760 929.879150,717.201477 
	C930.611267,716.102112 931.358093,715.012695 932.428772,713.844727 
	C932.647034,717.625977 926.899780,725.256409 923.126709,726.559875 
	C919.773743,727.718079 913.791565,725.434631 911.256409,721.011047 
	C906.304810,712.370850 901.659668,703.532776 897.325562,694.565002 
	C880.018494,658.754517 862.850830,622.876526 845.686218,586.997437 
	C827.875549,549.768005 810.085571,512.528687 792.368713,475.254639 
	C781.797852,453.014893 771.381714,430.701569 760.912659,408.413483 
	C760.495972,407.526337 760.250671,406.558655 760.392944,405.232422 
	C761.340759,404.738159 761.821228,404.639954 762.301697,404.541748 
	C762.435608,404.878021 762.569519,405.214325 762.882751,405.755981 
z"/>
<path fill="#4D4D4D" opacity="1.000000" stroke="none" 
	d="
M626.675598,442.617737 
	C625.448181,444.715118 624.163818,446.384369 623.274475,448.242676 
	C601.050598,494.678345 578.868225,541.133911 556.092346,587.797363 
	C555.270813,587.983582 555.035461,587.958435 554.800110,587.933228 
	C556.659790,583.490845 558.334412,578.960022 560.407837,574.619751 
	C580.288086,533.004272 600.232483,491.419434 620.165344,449.829102 
	C631.174438,426.858215 642.208008,403.899078 653.208984,380.924316 
	C660.536865,365.620544 667.796265,350.283936 675.144348,334.989899 
	C680.049194,324.781158 688.281616,319.904663 699.560974,320.053589 
	C702.559570,320.093201 705.563293,319.993134 708.556641,320.131531 
	C716.273254,320.488251 723.299011,322.942841 727.099304,329.963379 
	C732.133240,339.263062 736.279175,349.043427 740.337646,358.865051 
	C735.432434,350.402161 731.285828,341.526917 726.460999,333.037140 
	C723.109192,327.139404 718.218567,322.672058 710.787170,322.360016 
	C705.160950,322.582214 699.534790,322.804413 693.112671,322.972351 
	C682.696838,325.368866 678.293884,333.096802 674.425659,341.087738 
	C660.998230,368.825653 647.734436,396.642944 634.474182,424.461304 
	C633.351929,426.815674 632.718018,429.402832 631.857178,431.881836 
	C630.172363,435.347137 628.487549,438.812439 626.675598,442.617737 
z"/>
<path fill="#989898" opacity="1.000000" stroke="none" 
	d="
M1012.413147,533.736084 
	C988.387451,483.466522 964.606506,432.931946 940.832458,382.394135 
	C933.961487,367.788025 927.027039,353.210938 920.281128,338.547150 
	C916.154724,329.577454 918.017944,324.851593 926.768433,321.311798 
	C928.126282,320.990051 929.258423,320.926331 930.767212,321.062805 
	C929.775269,322.023071 928.464966,322.923950 927.027832,323.517731 
	C922.029114,325.583191 919.644287,329.620514 921.548706,334.667450 
	C924.301758,341.963135 927.551636,349.085724 930.866943,356.152039 
	C940.052063,375.729218 949.336609,395.260162 958.662354,414.770905 
	C974.875305,448.690643 991.249207,482.533966 1007.291748,516.533936 
	C1009.796265,521.841858 1010.905945,527.807983 1012.413147,533.736084 
z"/>
<path fill="#505050" opacity="1.000000" stroke="none" 
	d="
M203.696960,51.252689 
	C200.030884,52.194069 195.931564,53.079132 191.796310,53.738701 
	C171.748352,56.936337 154.324142,65.326355 139.088654,78.870758 
	C118.489159,97.183769 105.934814,119.561241 102.528854,146.981094 
	C102.490761,147.287811 102.234894,147.567444 101.747147,148.007172 
	C101.376717,129.791809 106.808578,112.968056 117.133530,98.030647 
	C137.864822,68.038055 166.166931,51.370270 203.696960,51.252689 
z"/>
<path fill="#666666" opacity="1.000000" stroke="none" 
	d="
M810.766541,763.301941 
	C807.442261,764.482361 803.646179,765.405334 799.914551,766.540039 
	C753.808411,780.559204 726.099243,811.264465 716.610352,858.475098 
	C716.513489,858.957153 716.287720,859.413269 715.808716,860.055176 
	C714.673645,849.990112 717.637756,840.431152 721.471191,831.245544 
	C736.370667,795.544189 762.318420,772.607788 800.427307,764.153809 
	C803.642944,763.440491 807.021729,763.462402 810.766541,763.301941 
z"/>
<path fill="#666666" opacity="1.000000" stroke="none" 
	d="
M924.595459,863.798767 
	C923.043091,858.151794 921.844177,852.022949 920.285034,845.987244 
	C912.675110,816.527649 895.328918,794.342651 869.586182,778.471924 
	C857.704834,771.146912 844.841492,766.470703 830.959106,763.741455 
	C843.739807,762.710815 855.465820,767.035095 866.491821,773.007996 
	C902.341125,792.428040 922.480652,822.192871 924.595459,863.798767 
z"/>
<path fill="#BCBCBC" opacity="1.000000" stroke="none" 
	d="
M33.896873,532.099976 
	C38.771881,542.572998 43.646896,553.045959 48.628647,564.183838 
	C49.443130,566.703308 50.023277,568.619019 50.877663,570.403503 
	C64.527985,598.913391 78.229706,627.398621 91.881096,655.908020 
	C96.118980,664.758362 100.587997,673.520935 104.328484,682.580750 
	C108.794968,693.398926 107.110367,697.176331 96.999817,701.995178 
	C96.519363,702.011292 96.038910,702.027466 95.234840,701.884338 
	C95.021103,701.423645 95.040306,700.969910 95.253914,700.842712 
	C105.649139,694.653442 106.589806,691.546143 101.011925,679.856995 
	C94.631454,666.486023 87.963425,653.252075 81.600990,639.872742 
	C60.019485,594.489319 38.458454,549.095825 17.087156,503.613342 
	C15.176452,499.546997 14.693847,494.809601 14.128423,490.301941 
	C15.399336,492.571533 15.820241,495.045898 16.825848,497.253937 
	C21.812824,508.204041 26.954077,519.083923 32.014015,530.329346 
	C32.623672,531.146790 33.260281,531.623352 33.896873,532.099976 
z"/>
<path fill="#B6B6B6" opacity="1.000000" stroke="none" 
	d="
M632.211243,431.905579 
	C632.718018,429.402832 633.351929,426.815674 634.474182,424.461304 
	C647.734436,396.642944 660.998230,368.825653 674.425659,341.087738 
	C678.293884,333.096802 682.696838,325.368866 692.688843,323.009308 
	C689.632202,326.097412 685.151428,328.478485 682.969727,332.205383 
	C676.116150,343.913391 669.936707,356.032227 663.858643,368.173401 
	C658.064026,379.748444 652.739258,391.558411 647.179443,403.251556 
	C643.257935,411.499237 639.322571,419.740784 635.309387,427.944000 
	C634.608337,429.376953 633.490540,430.606079 632.211243,431.905579 
z"/>
<path fill="#545454" opacity="1.000000" stroke="none" 
	d="
M838.274292,971.085266 
	C838.771118,970.285034 839.532654,969.376282 840.471252,969.122620 
	C883.268494,957.559021 909.640137,929.833740 921.087463,887.368469 
	C921.297119,886.590881 921.692688,885.863403 922.533325,885.328369 
	C923.205078,885.777649 923.345032,886.011169 923.485046,886.244690 
	C923.397644,886.633423 923.310181,887.022095 922.887146,887.936523 
	C922.014038,890.377014 921.481567,892.293152 920.938232,894.206177 
	C911.167419,928.609375 889.557800,952.441772 856.631287,966.127502 
	C853.151489,967.573975 849.546814,968.720093 846.000000,970.005554 
	C845.603821,970.081360 845.207642,970.157166 844.179321,970.182495 
	C842.699219,970.452209 841.851318,970.772339 841.003357,971.092468 
	C840.209473,971.155701 839.415527,971.218994 838.274292,971.085266 
z"/>
<path fill="#666666" opacity="1.000000" stroke="none" 
	d="
M717.285461,885.768066 
	C719.322449,891.324097 721.204468,896.942749 723.421631,902.425903 
	C737.416809,937.037537 762.288025,959.256226 798.701050,968.268372 
	C800.780579,968.783142 802.811157,969.496094 804.645325,970.606079 
	C804.160950,971.226440 803.895813,971.357422 803.630615,971.488403 
	C802.970337,971.384583 802.310120,971.280762 801.088867,970.812134 
	C797.494263,969.597961 794.458130,968.757935 791.427673,967.897949 
	C758.490173,958.550964 736.032715,937.529968 722.954285,906.188660 
	C720.612305,900.576294 718.840088,894.726135 716.804749,888.985779 
	C716.730042,888.627747 716.655334,888.269714 716.746887,887.241028 
	C717.037231,886.302917 717.161377,886.035461 717.285461,885.768066 
z"/>
<path fill="#9F9F9F" opacity="1.000000" stroke="none" 
	d="
M716.605225,889.275696 
	C718.840088,894.726135 720.612305,900.576294 722.954285,906.188660 
	C736.032715,937.529968 758.490173,958.550964 791.427673,967.897949 
	C794.458130,968.757935 797.494263,969.597961 800.764648,970.730469 
	C800.394714,971.186279 799.732849,971.612732 799.189026,971.494751 
	C777.629578,966.818115 757.908203,958.287537 742.859192,941.681274 
	C729.402649,926.831970 719.758545,909.709534 716.605225,889.275696 
z"/>
<path fill="#B0B0B0" opacity="1.000000" stroke="none" 
	d="
M846.232788,970.265320 
	C849.546814,968.720093 853.151489,967.573975 856.631287,966.127502 
	C889.557800,952.441772 911.167419,928.609375 920.938232,894.206177 
	C921.481567,892.293152 922.014038,890.377014 922.847290,888.232910 
	C922.720764,891.007629 922.655151,894.114807 921.822021,897.000366 
	C910.920837,934.757324 886.754578,959.393677 848.878784,970.350220 
	C848.120911,970.569458 847.272034,970.473816 846.232788,970.265320 
z"/>
<path fill="#3C3C3C" opacity="1.000000" stroke="none" 
	d="
M32.040970,529.988525 
	C26.954077,519.083923 21.812824,508.204041 16.825848,497.253937 
	C15.820241,495.045898 15.399336,492.571533 14.439458,490.106079 
	C14.173989,487.302460 14.177917,484.612671 14.436468,481.389099 
	C14.729994,479.877350 14.768894,478.899445 14.807796,477.921539 
	C14.947305,477.507050 15.086810,477.092590 15.524858,476.240906 
	C21.473093,463.450226 27.096193,451.084473 32.809097,438.760315 
	C33.458843,437.358673 34.612911,436.190796 35.533134,434.914520 
	C35.397045,436.440063 35.660999,438.147949 35.061825,439.462372 
	C30.095232,450.357758 24.971395,461.181458 19.890413,472.024658 
	C15.415622,481.574158 15.917082,490.921631 20.534779,500.347015 
	C25.210543,509.890930 29.510262,519.619080 33.647133,529.646606 
	C32.893364,530.013977 32.467171,530.001221 32.040970,529.988525 
z"/>
<path fill="#B0B0B0" opacity="1.000000" stroke="none" 
	d="
M710.841553,322.707672 
	C718.218567,322.672058 723.109192,327.139404 726.460999,333.037140 
	C731.285828,341.526917 735.432434,350.402161 740.182251,359.233032 
	C744.822876,368.243774 749.149658,377.134399 753.456848,386.709351 
	C753.265564,387.947174 753.093872,388.500610 752.922241,389.054077 
	C751.889893,387.621338 750.630615,386.300476 749.860657,384.738434 
	C742.674988,370.160126 735.419189,355.612793 728.508118,340.904053 
	C724.689270,332.776428 719.284912,326.522125 710.841553,322.707672 
z"/>
<path fill="#B6B6B6" opacity="1.000000" stroke="none" 
	d="
M943.203125,691.885620 
	C943.779602,689.259338 944.479553,686.528992 945.678467,684.039001 
	C954.016907,666.721619 962.458679,649.454041 971.509399,632.054749 
	C972.386047,631.954773 972.620667,631.970642 972.855347,631.986450 
	C969.159607,639.911560 965.510925,647.859009 961.757202,655.756653 
	C956.290466,667.258545 950.760254,678.730408 945.207947,690.191284 
	C944.880859,690.866577 944.117676,691.330505 943.203125,691.885620 
z"/>
<path fill="#BCBCBC" opacity="1.000000" stroke="none" 
	d="
M35.616386,434.592163 
	C34.612911,436.190796 33.458843,437.358673 32.809097,438.760315 
	C27.096193,451.084473 21.473093,463.450226 15.559057,475.913757 
	C15.362934,474.418213 14.960157,472.600616 15.572484,471.239777 
	C21.480534,458.109436 27.500025,445.028107 33.619114,431.994476 
	C35.989296,426.946045 38.695362,422.055328 41.719788,417.353516 
	C42.299698,417.831238 42.408234,418.048126 42.351940,418.592621 
	C40.446960,423.273132 38.706802,427.626007 36.966652,431.978882 
	C36.544319,432.742523 36.121983,433.506165 35.616386,434.592163 
z"/>
<path fill="#989898" opacity="1.000000" stroke="none" 
	d="
M987.324097,598.897827 
	C987.536194,596.933044 987.813477,594.756836 988.711426,592.877075 
	C994.810669,580.108704 1001.317261,567.526550 1007.096191,554.617493 
	C1009.498718,549.250549 1010.438354,543.228699 1012.242065,537.099854 
	C1011.872437,541.773621 1012.511658,547.394470 1010.518311,551.833130 
	C1003.386780,567.713196 995.362793,583.192505 987.324097,598.897827 
z"/>
<path fill="#9F9F9F" opacity="1.000000" stroke="none" 
	d="
M556.909424,305.204407 
	C556.177673,305.921204 554.768494,306.220062 553.919678,307.075104 
	C552.195374,308.811920 549.357239,311.039886 549.582520,312.715271 
	C549.871155,314.861786 552.381836,317.589233 554.555481,318.397156 
	C557.852905,319.622711 561.684448,319.411224 565.641968,319.990051 
	C560.600647,320.051666 555.169678,320.273712 549.825439,319.694855 
	C546.297729,319.312775 543.493896,316.870911 543.550171,313.011047 
	C543.608032,309.047180 546.341675,306.715088 550.080627,305.833282 
	C552.162292,305.342346 554.347168,305.288818 556.909424,305.204407 
z"/>
<path fill="#545454" opacity="1.000000" stroke="none" 
	d="
M89.746475,702.280884 
	C88.287865,703.272522 86.137215,703.774719 84.602776,705.030151 
	C82.450989,706.790588 79.540123,708.908020 79.150589,711.239746 
	C78.550644,714.830872 81.704865,716.984314 85.154221,718.024536 
	C86.088638,718.306274 86.999115,718.667358 88.034851,719.312988 
	C85.394913,719.290283 82.570854,719.219238 79.903740,718.535767 
	C76.387543,717.634583 73.452477,715.010132 74.188438,711.492249 
	C74.766411,708.729675 77.245285,705.666016 79.739922,704.193176 
	C82.411621,702.615784 86.090248,702.743774 89.746475,702.280884 
z"/>
<path fill="#3C3C3C" opacity="1.000000" stroke="none" 
	d="
M333.295074,719.691650 
	C334.092896,718.846313 335.492035,718.319458 336.459320,717.358093 
	C338.429932,715.399475 341.448486,713.300049 341.610352,711.081726 
	C341.748596,709.187317 338.784058,706.635803 336.654572,705.139893 
	C334.879150,703.892639 332.324249,703.754883 329.995728,702.795288 
	C333.454468,702.938660 337.423584,702.619629 340.487823,704.132935 
	C343.012634,705.379761 345.477478,708.553833 346.142731,711.313965 
	C347.020599,714.955994 343.875885,717.326721 340.505920,718.448425 
	C338.327484,719.173523 335.975281,719.376465 333.295074,719.691650 
z"/>
<path fill="#C2C2C2" opacity="1.000000" stroke="none" 
	d="
M973.147827,631.795288 
	C972.620667,631.970642 972.386047,631.954773 971.798706,631.906982 
	C975.988220,622.260193 980.530518,612.645264 985.365723,602.845093 
	C984.807190,605.437256 984.219910,608.331665 983.052795,610.969604 
	C979.983276,617.907349 976.661560,624.733459 973.147827,631.795288 
z"/>
<path fill="#545454" opacity="1.000000" stroke="none" 
	d="
M249.790207,305.296509 
	C249.084473,306.061554 247.801514,306.495392 246.982605,307.365814 
	C245.415619,309.031372 243.052567,310.919281 243.007385,312.763641 
	C242.964859,314.499329 245.428131,316.344971 246.903915,318.042267 
	C247.403229,318.616547 248.253830,318.885437 248.973267,319.644470 
	C247.939117,320.047058 246.875610,320.099060 245.214203,319.808563 
	C242.505569,317.203278 239.541336,315.224701 238.652466,312.555084 
	C238.222870,311.264893 241.694580,308.676788 243.397278,306.674164 
	C243.605255,306.429535 243.797089,306.171204 243.996399,305.919189 
	C245.805130,305.666962 247.613861,305.414734 249.790207,305.296509 
z"/>
<path fill="#454545" opacity="1.000000" stroke="none" 
	d="
M938.848145,319.642334 
	C939.374023,319.062408 939.814026,318.359222 940.440002,317.922791 
	C944.150635,315.335480 945.707703,312.532318 941.686890,308.865753 
	C941.289307,308.503174 941.296143,307.697144 941.339661,306.903809 
	C942.334473,306.688110 943.104980,306.665497 944.339661,307.125122 
	C949.157532,312.871460 948.891846,314.676758 943.012451,319.779877 
	C942.620850,319.906860 942.229187,320.033813 941.149048,320.077240 
	C939.923096,319.876617 939.385620,319.759491 938.848145,319.642334 
z"/>
<path fill="#B0B0B0" opacity="1.000000" stroke="none" 
	d="
M243.776733,305.694336 
	C243.797089,306.171204 243.605255,306.429535 243.397278,306.674164 
	C241.694580,308.676788 238.222870,311.264893 238.652466,312.555084 
	C239.541336,315.224701 242.505569,317.203278 244.807800,319.749908 
	C240.190948,320.626801 235.824738,317.682495 235.255188,313.462952 
	C234.738663,309.636230 237.690445,306.794098 243.776733,305.694336 
z"/>
<path fill="#4D4D4D" opacity="1.000000" stroke="none" 
	d="
M753.101196,389.374329 
	C753.093872,388.500610 753.265564,387.947174 753.663330,387.020538 
	C756.718018,392.370972 759.546570,398.094604 762.338379,404.179993 
	C761.821228,404.639954 761.340759,404.738159 760.491699,404.857758 
	C757.842163,399.817657 755.561157,394.756104 753.101196,389.374329 
z"/>
<path fill="#989898" opacity="1.000000" stroke="none" 
	d="
M943.161316,320.056091 
	C948.891846,314.676758 949.157532,312.871460 944.700928,307.316956 
	C946.540894,308.211700 949.738586,309.085938 950.127625,310.656158 
	C950.687378,312.915161 949.689758,315.969727 948.409729,318.121246 
	C947.641479,319.412537 945.070801,319.631439 943.161316,320.056091 
z"/>
<path fill="#9F9F9F" opacity="1.000000" stroke="none" 
	d="
M622.326843,320.338104 
	C625.433594,319.999176 628.859863,319.894470 632.641479,319.952026 
	C629.546692,320.266937 626.096497,320.419617 622.326843,320.338104 
z"/>
<path fill="#B6B6B6" opacity="1.000000" stroke="none" 
	d="
M939.140991,700.843506 
	C939.481323,698.896240 940.171509,696.969666 941.187378,694.974121 
	C940.838928,696.891541 940.164856,698.877869 939.140991,700.843506 
z"/>
<path fill="#9F9F9F" opacity="1.000000" stroke="none" 
	d="
M834.158569,972.099915 
	C835.139404,971.469055 836.292908,971.117859 837.777344,970.966675 
	C836.849304,971.570923 835.590332,971.975281 834.158569,972.099915 
z"/>
<path fill="#BCBCBC" opacity="1.000000" stroke="none" 
	d="
M14.487888,477.958405 
	C14.768894,478.899445 14.729994,479.877350 14.440285,480.940582 
	C14.182312,480.015686 14.175147,479.005493 14.487888,477.958405 
z"/>
<path fill="#9F9F9F" opacity="1.000000" stroke="none" 
	d="
M803.791382,971.721069 
	C803.895813,971.357422 804.160950,971.226440 804.827698,970.906311 
	C805.625732,970.767212 806.022156,970.817383 806.702820,971.205688 
	C806.993652,971.719177 807.000244,971.894592 807.006897,972.069946 
	C805.988647,972.031189 804.970398,971.992432 803.791382,971.721069 
z"/>
<path fill="#B0B0B0" opacity="1.000000" stroke="none" 
	d="
M841.189087,971.318604 
	C841.851318,970.772339 842.699219,970.452209 843.887146,970.261292 
	C843.276367,970.775208 842.325562,971.159973 841.189087,971.318604 
z"/>
<path fill="#7C7C7C" opacity="1.000000" stroke="none" 
	d="
M42.516766,418.264984 
	C42.408234,418.048126 42.299698,417.831238 42.054276,417.276978 
	C41.955753,416.535278 41.994114,416.130859 42.089619,415.427277 
	C42.565540,415.091431 42.984322,415.054779 43.749249,415.353394 
	C43.569183,416.547455 43.042976,417.406219 42.516766,418.264984 
z"/>
<path fill="#545454" opacity="1.000000" stroke="none" 
	d="
M922.973145,882.999573 
	C923.045227,881.981873 923.117310,880.964172 923.494385,879.927002 
	C923.902771,880.674988 924.006165,881.442505 923.808472,882.617126 
	C923.329224,883.015991 923.151123,883.007812 922.973145,882.999573 
z"/>
<path fill="#B0B0B0" opacity="1.000000" stroke="none" 
	d="
M922.930847,883.308777 
	C923.151123,883.007812 923.329224,883.015991 923.774597,883.014771 
	C924.031250,884.006226 924.020691,885.007202 923.747559,886.126465 
	C923.345032,886.011169 923.205078,885.777649 922.856140,885.193237 
	C922.727600,884.434204 922.808105,884.026062 922.930847,883.308777 
z"/>
<path fill="#9F9F9F" opacity="1.000000" stroke="none" 
	d="
M717.258667,885.469727 
	C717.161377,886.035461 717.037231,886.302917 716.718384,886.968079 
	C716.205688,886.383667 715.887756,885.401611 716.013000,884.216309 
	C716.631714,884.008728 716.807190,884.004456 716.982605,884.000183 
	C717.065674,884.390625 717.148743,884.781006 717.258667,885.469727 
z"/>
<path fill="#545454" opacity="1.000000" stroke="none" 
	d="
M252.222382,320.538879 
	C252.973557,320.173920 253.976395,320.058258 255.081085,320.223083 
	C254.279953,320.598419 253.376999,320.693329 252.222382,320.538879 
z"/>
<path fill="#666666" opacity="1.000000" stroke="none" 
	d="
M815.211060,972.571167 
	C815.683899,972.229126 816.381653,972.110718 817.152344,972.246216 
	C816.628845,972.598267 816.032349,972.696533 815.211060,972.571167 
z"/>
<path fill="#454545" opacity="1.000000" stroke="none" 
	d="
M934.287964,320.933350 
	C934.649475,320.508911 935.382324,320.260376 936.124695,320.283508 
	C935.642639,320.739838 935.150940,320.924530 934.287964,320.933350 
z"/>
<path fill="#666666" opacity="1.000000" stroke="none" 
	d="
M807.377014,972.122192 
	C807.000244,971.894592 806.993652,971.719177 806.993408,971.280640 
	C807.717041,971.088867 808.434265,971.160278 809.141418,971.498047 
	C808.669922,971.901123 808.208496,972.037781 807.377014,972.122192 
z"/>
<path fill="#666666" opacity="1.000000" stroke="none" 
	d="
M717.173462,883.832397 
	C716.807190,884.004456 716.631714,884.008728 716.193115,884.003052 
	C715.900757,883.499207 715.871460,883.005249 716.036011,882.193359 
	C716.607971,882.471741 716.986206,883.068176 717.173462,883.832397 
z"/>
<path fill="#B6B6B6" opacity="1.000000" stroke="none" 
	d="
M935.952881,707.702698 
	C935.751953,707.161560 935.860413,706.661987 936.223389,706.070679 
	C936.780884,706.238342 937.083740,706.497803 937.386597,706.757202 
	C937.011841,707.086243 936.637085,707.415222 935.952881,707.702698 
z"/>
<path fill="#989898" opacity="1.000000" stroke="none" 
	d="
M938.718506,319.863190 
	C939.385620,319.759491 939.923096,319.876617 940.847290,320.143677 
	C940.492249,320.546875 939.750549,320.800140 938.953735,320.772583 
	C938.795471,320.355865 938.692200,320.219940 938.718506,319.863190 
z"/>
<path fill="#989898" opacity="1.000000" stroke="none" 
	d="
M986.311584,600.967346 
	C985.945068,600.663513 986.029358,600.360779 986.467896,599.977905 
	C986.657288,600.214355 986.637451,600.571228 986.311584,600.967346 
z"/>
<path fill="#505050" opacity="1.000000" stroke="none" 
	d="
M554.531372,588.140320 
	C555.035461,587.958435 555.270813,587.983582 555.859558,588.047607 
	C551.674011,598.252930 547.339905,608.516846 542.556702,618.567078 
	C529.325317,646.368042 515.896179,674.074890 502.570740,701.831177 
	C499.978302,707.231079 497.676056,712.777771 494.901337,718.079590 
	C493.379364,720.987549 491.472717,723.844727 489.175171,726.166199 
	C483.809448,731.587769 476.244141,731.675842 470.958862,726.202454 
	C468.241699,723.388489 465.970917,719.920471 464.276520,716.376038 
	C446.548187,679.290771 429.001953,642.118469 411.354828,604.994202 
	C399.637146,580.343628 387.820404,555.740173 376.099304,531.091187 
	C374.820953,528.402832 373.882660,525.552734 372.880981,522.398315 
	C375.362762,526.255188 377.997253,530.373047 380.093811,534.748657 
	C388.142914,551.547302 395.949188,568.462158 403.974518,585.272339 
	C422.895172,624.904175 441.878357,664.506287 460.867218,704.105530 
	C463.450958,709.493652 465.772064,715.079224 468.983185,720.079956 
	C475.502502,730.232544 484.624329,730.323303 490.999329,720.094788 
	C495.197174,713.359497 498.284302,705.921692 501.743439,698.738098 
	C513.579651,674.157837 525.400330,649.569824 537.145325,624.945862 
	C542.943176,612.790283 548.562500,600.549622 554.531372,588.140320 
z"/>
<path fill="#545454" opacity="1.000000" stroke="none" 
	d="
M266.884613,321.700623 
	C266.147217,321.965698 265.292389,321.933929 264.232941,321.654358 
	C264.941284,321.405609 265.854218,321.404724 266.884613,321.700623 
z"/>
<path fill="#545454" opacity="1.000000" stroke="none" 
	d="
M97.240784,702.225220 
	C107.110367,697.176331 108.794968,693.398926 104.328484,682.580750 
	C100.587997,673.520935 96.118980,664.758362 91.881096,655.908020 
	C78.229706,627.398621 64.527985,598.913391 50.877663,570.403503 
	C50.023277,568.619019 49.443130,566.703308 48.817787,564.467957 
	C49.868687,565.060303 51.193134,565.862427 51.754086,567.031067 
	C69.826065,604.681702 87.836563,642.361877 105.802979,680.063049 
	C106.869774,682.301636 107.644234,684.710144 108.297623,687.109619 
	C110.742203,696.087280 106.881058,701.508667 97.240784,702.225220 
z"/>
<path fill="#3C3C3C" opacity="1.000000" stroke="none" 
	d="
M79.296867,342.977875 
	C80.953232,338.100616 82.677620,333.093140 85.039787,328.407135 
	C89.298325,319.959137 93.938622,311.703552 99.066864,303.154694 
	C102.235611,302.157013 104.756943,301.372253 107.278282,300.587494 
	C109.340103,302.157227 112.283768,303.283997 113.328773,305.364441 
	C125.144928,328.889008 136.670120,352.559723 148.180237,376.568115 
	C146.960464,375.692719 145.482529,374.615082 144.759949,373.161865 
	C134.473007,352.473114 124.231941,331.760925 114.129265,310.981750 
	C112.247284,307.110840 109.875420,304.194855 105.381683,303.954346 
	C100.543343,303.695435 98.386284,307.452881 96.533928,310.900360 
	C92.440422,318.518890 88.780922,326.369354 84.829475,334.066223 
	C83.260597,337.122192 81.387138,340.021759 79.296867,342.977875 
z"/>
<path fill="#3C3C3C" opacity="1.000000" stroke="none" 
	d="
M244.177185,577.983154 
	C245.582596,579.458679 246.877228,580.932251 247.688629,582.635986 
	C262.401947,613.529541 277.033569,644.462158 291.750885,675.353882 
	C293.891815,679.847717 296.338806,684.198792 298.723999,688.572388 
	C301.679474,693.991516 305.863251,698.118774 311.823853,700.773193 
	C305.432007,701.906677 301.388214,697.961426 298.719971,693.005981 
	C291.461578,679.525818 284.486633,665.882996 277.770905,652.123291 
	C270.839966,637.922791 264.381561,623.492249 257.649231,609.193970 
	C253.324280,600.008545 248.848434,590.894104 244.525513,581.707764 
	C244.019379,580.632202 244.056305,579.301025 244.177185,577.983154 
z"/>
<path fill="#3C3C3C" opacity="1.000000" stroke="none" 
	d="
M42.351940,418.592621 
	C43.042976,417.406219 43.569183,416.547455 44.064766,415.362640 
	C54.633736,392.574951 65.231430,370.112427 75.843452,347.656647 
	C76.121445,347.068420 76.555656,346.554047 77.243256,345.949829 
	C77.581009,347.130157 78.015121,348.564423 77.541656,349.572357 
	C68.001503,369.881134 58.353764,390.139313 48.735565,410.411469 
	C45.957142,416.267548 43.249226,422.157745 40.405800,427.981903 
	C39.703121,429.421265 38.597023,430.663635 37.321503,431.987701 
	C38.706802,427.626007 40.446960,423.273132 42.351940,418.592621 
z"/>
<path fill="#3C3C3C" opacity="1.000000" stroke="none" 
	d="
M201.158508,487.989227 
	C202.991638,490.356354 204.720810,492.721741 205.953629,495.322418 
	C215.472549,515.403198 224.899994,535.527222 234.338669,555.645996 
	C235.039948,557.140747 235.608093,558.697998 236.144836,560.596985 
	C235.218872,560.314148 234.018311,559.837219 233.607269,558.981201 
	C222.565674,535.985535 211.599930,512.953369 200.667084,489.905701 
	C200.443207,489.433746 200.760056,488.705292 201.158508,487.989227 
z"/>
<path fill="#3C3C3C" opacity="1.000000" stroke="none" 
	d="
M149.100311,380.045715 
	C152.970078,386.811127 156.613708,393.627563 160.026917,400.557465 
	C166.765121,414.238251 173.375732,427.981934 179.946320,442.096313 
	C179.006485,441.838776 177.792969,441.365906 177.366257,440.503632 
	C167.875366,421.324951 158.461319,402.108185 149.087051,382.872162 
	C148.709152,382.096771 148.863571,381.061981 149.100311,380.045715 
z"/>
<path fill="#3C3C3C" opacity="1.000000" stroke="none" 
	d="
M181.140106,445.996429 
	C184.663849,452.151611 187.856003,458.416382 190.955139,465.074463 
	C190.592163,465.593994 190.086166,465.832245 190.085480,465.830780 
	C186.970932,459.266388 183.889755,452.686188 181.140106,445.996429 
z"/>
<path fill="#3C3C3C" opacity="1.000000" stroke="none" 
	d="
M192.121796,469.003418 
	C195.048218,474.002289 197.644638,479.112518 200.148071,484.594177 
	C197.300644,479.682007 194.546219,474.398376 192.121796,469.003418 
z"/>
<path fill="#3C3C3C" opacity="1.000000" stroke="none" 
	d="
M237.166107,563.985901 
	C238.975052,566.408325 240.449722,568.936523 241.800262,571.815674 
	C237.691696,570.896606 237.018311,567.640137 237.166107,563.985901 
z"/>
<path fill="#3C3C3C" opacity="1.000000" stroke="none" 
	d="
M313.904999,701.773499 
	C314.419159,701.498291 315.003754,701.475281 315.799683,701.677979 
	C315.332489,701.944397 314.653961,701.985107 313.904999,701.773499 
z"/>
<path fill="#545454" opacity="1.000000" stroke="none" 
	d="
M32.014019,530.329346 
	C32.467171,530.001221 32.893364,530.013977 33.638733,530.023315 
	C34.017391,530.489258 34.076881,530.958618 34.016624,531.763977 
	C33.260281,531.623352 32.623672,531.146790 32.014019,530.329346 
z"/>
<path fill="#7C7C7C" opacity="1.000000" stroke="none" 
	d="
M107.136139,300.278687 
	C104.756943,301.372253 102.235611,302.157013 99.332146,302.945770 
	C100.769012,299.628662 103.337662,298.331207 107.136139,300.278687 
z"/>
</svg>